# xmcd
#
# Track frame offsets:
#	150
#	14323
#	27510
#	38619
#	58101
#	75629
#	94592
#	105539
#	115562
#	128876
#	146046
#	157431
#	182089
#	202826
#	216995
#	231541
#	250167
#	274065
#	290431
#	301103
#	318212
#
# Disc length: 4771 seconds
#
# Revision: 1
# Processed by: cddbd v1.5.2PL0 Copyright (c) Steve Scherf et al.
# Submitted via: audiograbber 1.83.01
#
DISCID=2812a115
DTITLE=Various Artist - 30 Jaar Blues Peer CD1
DYEAR=2014
DGENRE=Blues
TTITLE0=Stevie Ray Vaughan and Double Trouble - Look At Little Sister
TTITLE1=Gary Moore - Walking By Myself
TTITLE2=John Lee Hooker - This Is Hip
TTITLE3=Arno - Rollin' And Tumblin'
TTITLE4=North Mississippi All Stars - Boogie
TTITLE5=Ben Harper - Like A King
TTITLE6=Wilson Pickett - Land Of 1000 Dances
TTITLE7=The Fabulous Thunderbirds - The Crawl
TTITLE8=Vidar Busk And His True Believers - Help Me Through The Day
TTITLE9=Bobby Blue Bland - Help Me Through The Day
TTITLE10=Etta James - I'd Rather Go Blind
TTITLE11=Jeff Beck - Goodbye Pork Pie Hat
TTITLE12=The Derek Trucks Band - Sweet Inspiration
TTITLE13=Los Lobos - Anselma
TTITLE14=Bo Diddley - You Can't Judge A Book By Its Cover
TTITLE15=Dr. John - Goin' Back To New Orleans
TTITLE16=Hugh Laurie - Careless Love
TTITLE17=The Blind Boys Of Alabama - Give A Man A Home
TTITLE18=The Electric Kings - In The Mood
TTITLE19=Admiral Freebee - My Hippie Ain't Hip
TTITLE20=The Delta Saints - Crazy
EXTD=YEAR: 2014
EXTT0=
EXTT1=
EXTT2=
EXTT3=
EXTT4=
EXTT5=
EXTT6=
EXTT7=
EXTT8=
EXTT9=
EXTT10=
EXTT11=
EXTT12=
EXTT13=
EXTT14=
EXTT15=
EXTT16=
EXTT17=
EXTT18=
EXTT19=
EXTT20=
PLAYORDER=
